# xmcd CD database file
#
# Track frame offsets:
#	195
#	19204
#	35932
#	47266
#	62070
#	76426
#	89822
#	102615
#	116227
#	129027
#	141857
#	153583
#	167408
#	180494
#	198954
#	212670
#	226104
#	237694
#	249965
#	262870
#
# Disc length: 3667 seconds
#
# Revision: 0
# Processed by: cddbd v1.5.1PL0 Copyright (c) Steve Scherf et al.
# Submitted via: CDex 1.51
#
DISCID=120e5114
DTITLE=Django Reinhardt - Integrale Django Vol.11 Disc 2
DYEAR=1941
DGENRE=Jazz
TTITLE0=Nympheas
TTITLE1=Feerie
TTITLE2=BelleVille (version1)
TTITLE3=Lentement, Mademoiselle
TTITLE4=Vous Et Moi
TTITLE5=Distraction
TTITLE6=Blues En Mineur
TTITLE7=Studio 24
TTITLE8=Place De Brouckere
TTITLE9=Seul Ce Soir
TTITLE10=Mixtures
TTITLE11=Bei Dir War Es Immer So Schon
TTITLE12=Divine Biguine (Begin The Beguine)
TTITLE13=Nuages
TTITLE14=Djangologie
TTITLE15=Eclats De Cuivre
TTITLE16=Django Rag
TTITLE17=Dynamisme
TTITLE18=Tons D'Ebene
TTITLE19=Chez Moi A Six Heures
EXTD=YEAR: 1941
EXTT0=
EXTT1=
EXTT2=
EXTT3=
EXTT4=
EXTT5=
EXTT6=
EXTT7=
EXTT8=
EXTT9=
EXTT10=
EXTT11=
EXTT12=
EXTT13=
EXTT14=
EXTT15=
EXTT16=
EXTT17=
EXTT18=
EXTT19=
PLAYORDER=
